<svg id="svg" version="1.1" width="1000" height="500" xmlns="http://www.w3.org/2000/svg" xmlns:xlink="http://www.w3.org/1999/xlink" style="display: block;"><g id="svgg"><path id="path0" d="" stroke="none" fill="#000000" fill-rule="evenodd"></path><path id="path1" d="M315.500 188.282 C 315.995 188.378,316.805 188.378,317.300 188.282 C 317.795 188.187,317.390 188.109,316.400 188.109 C 315.410 188.109,315.005 188.187,315.500 188.282 " stroke="none" fill="#404040" fill-rule="evenodd"></path><path id="path2" d="M14.800 2.000 L 14.800 4.000 13.200 4.000 L 11.600 4.000 11.600 5.600 L 11.600 7.200 9.400 7.200 L 7.200 7.200 7.200 9.400 L 7.200 11.600 5.600 11.600 L 4.000 11.600 4.000 13.200 L 4.000 14.800 2.000 14.800 L 0.000 14.800 0.000 89.800 L 0.000 164.800 2.000 164.800 L 4.000 164.800 4.000 167.200 L 4.000 169.600 5.576 169.600 C 7.108 169.600,7.155 169.642,7.276 171.100 L 7.400 172.600 9.480 172.720 L 11.560 172.840 11.680 174.920 L 11.800 177.000 13.300 177.124 C 14.758 177.245,14.800 177.292,14.800 178.824 L 14.800 180.400 150.000 180.400 L 285.200 180.400 285.200 182.000 L 285.200 183.600 282.800 183.600 L 280.400 183.600 280.400 185.200 L 280.400 186.800 274.200 186.800 L 268.000 186.800 268.000 193.400 L 268.000 200.000 281.200 200.000 L 294.400 200.000 294.400 198.000 L 294.400 196.000 298.400 196.000 L 302.400 196.000 302.400 194.400 L 302.400 192.800 308.600 192.800 L 314.800 192.800 314.800 190.361 L 314.800 187.922 317.100 188.061 L 319.400 188.200 319.523 186.715 L 319.647 185.229 323.323 185.115 L 327.000 185.000 327.120 182.700 L 327.240 180.400 356.220 180.400 L 385.200 180.400 385.200 178.824 C 385.200 177.292,385.242 177.245,386.700 177.124 L 388.200 177.000 388.320 174.920 L 388.440 172.840 390.520 172.720 L 392.600 172.600 392.724 171.100 C 392.845 169.642,392.892 169.600,394.424 169.600 L 396.000 169.600 396.000 167.200 L 396.000 164.800 398.000 164.800 L 400.000 164.800 400.000 89.800 L 400.000 14.800 398.000 14.800 L 396.000 14.800 396.000 13.200 L 396.000 11.600 394.400 11.600 L 392.800 11.600 392.800 9.400 L 392.800 7.200 390.624 7.200 L 388.448 7.200 388.324 5.700 C 388.207 4.281,388.119 4.193,386.700 4.076 L 385.200 3.952 385.200 1.976 L 385.200 0.000 200.000 0.000 L 14.800 0.000 14.800 2.000 M381.200 7.947 L 383.800 8.200 383.928 9.992 C 384.079 12.117,384.490 12.710,385.929 12.876 C 386.754 12.972,387.028 13.246,387.124 14.071 C 387.290 15.510,387.883 15.921,390.008 16.072 L 391.800 16.200 392.144 18.800 C 392.642 22.560,392.910 152.220,392.430 157.073 C 391.780 163.647,391.799 163.600,389.778 163.600 C 387.793 163.600,387.501 163.919,387.210 166.397 C 387.021 168.019,386.883 168.214,385.800 168.400 C 384.858 168.563,384.503 168.907,384.150 170.003 C 383.536 171.906,383.694 171.896,353.200 171.959 C 324.245 172.018,326.000 171.871,326.000 174.247 L 326.000 176.000 324.049 176.000 C 322.803 176.000,321.918 176.217,321.600 176.600 C 321.326 176.930,320.674 177.200,320.151 177.200 C 319.415 177.200,319.200 177.416,319.200 178.157 C 319.200 179.282,318.549 179.600,316.247 179.600 C 314.164 179.600,313.600 180.128,313.600 182.080 C 313.600 183.399,313.479 183.600,312.680 183.600 C 312.174 183.600,311.540 183.820,311.270 184.090 C 311.001 184.359,309.847 184.674,308.707 184.790 C 306.904 184.973,306.603 185.131,306.399 185.998 C 306.270 186.547,305.903 187.027,305.582 187.065 C 305.262 187.103,302.615 187.358,299.700 187.632 L 294.400 188.130 294.400 189.865 L 294.400 191.600 290.600 191.600 L 286.800 191.600 286.800 190.064 C 286.800 188.418,288.164 187.792,292.397 187.497 C 293.446 187.424,293.823 187.201,293.912 186.600 C 294.287 184.081,294.351 184.000,296.008 184.000 L 297.600 184.000 297.600 182.386 C 297.600 181.498,297.878 180.348,298.218 179.829 C 298.673 179.134,298.804 178.061,298.718 175.743 L 298.600 172.600 296.000 172.347 C 294.570 172.207,232.290 172.050,157.600 171.997 C 11.400 171.893,16.264 171.951,16.076 170.329 C 15.930 169.066,15.369 168.528,14.000 168.338 C 13.126 168.217,12.984 167.974,12.872 166.408 C 12.707 164.081,12.257 163.600,10.242 163.600 L 8.582 163.600 8.091 161.488 C 7.565 159.228,7.429 24.116,7.947 18.800 L 8.200 16.200 9.992 16.072 C 12.117 15.921,12.710 15.510,12.876 14.071 C 12.972 13.246,13.246 12.972,14.071 12.876 C 15.510 12.710,15.921 12.117,16.072 9.992 L 16.200 8.200 18.600 7.967 C 21.877 7.649,377.941 7.629,381.200 7.947 " stroke="none" fill="#7d7d7d" fill-rule="evenodd"></path><path id="path3" d="M18.600 7.967 L 16.200 8.200 16.072 9.992 C 15.921 12.117,15.510 12.710,14.071 12.876 C 13.246 12.972,12.972 13.246,12.876 14.071 C 12.710 15.510,12.117 15.921,9.992 16.072 L 8.200 16.200 7.947 18.800 C 7.429 24.116,7.565 159.228,8.091 161.488 L 8.582 163.600 10.242 163.600 C 12.257 163.600,12.707 164.081,12.872 166.408 C 12.984 167.974,13.126 168.217,14.000 168.338 C 15.369 168.528,15.930 169.066,16.076 170.329 C 16.264 171.951,11.400 171.893,157.600 171.997 C 232.290 172.050,294.570 172.207,296.000 172.347 L 298.600 172.600 298.718 175.743 C 298.804 178.061,298.673 179.134,298.218 179.829 C 297.878 180.348,297.600 181.498,297.600 182.386 L 297.600 184.000 296.008 184.000 C 294.351 184.000,294.287 184.081,293.912 186.600 C 293.823 187.201,293.446 187.424,292.397 187.497 C 288.164 187.792,286.800 188.418,286.800 190.064 L 286.800 191.600 290.600 191.600 L 294.400 191.600 294.400 189.865 L 294.400 188.130 299.700 187.632 C 302.615 187.358,305.262 187.103,305.582 187.065 C 305.903 187.027,306.270 186.547,306.399 185.998 C 306.603 185.131,306.904 184.973,308.707 184.790 C 309.847 184.674,311.001 184.359,311.270 184.090 C 311.540 183.820,312.174 183.600,312.680 183.600 C 313.479 183.600,313.600 183.399,313.600 182.080 C 313.600 180.128,314.164 179.600,316.247 179.600 C 318.549 179.600,319.200 179.282,319.200 178.157 C 319.200 177.416,319.415 177.200,320.151 177.200 C 320.674 177.200,321.326 176.930,321.600 176.600 C 321.918 176.217,322.803 176.000,324.049 176.000 L 326.000 176.000 326.000 174.247 C 326.000 171.871,324.245 172.018,353.200 171.959 C 383.694 171.896,383.536 171.906,384.150 170.003 C 384.503 168.907,384.858 168.563,385.800 168.400 C 386.883 168.214,387.021 168.019,387.210 166.397 C 387.501 163.919,387.793 163.600,389.778 163.600 C 391.799 163.600,391.780 163.647,392.430 157.073 C 392.910 152.220,392.642 22.560,392.144 18.800 L 391.800 16.200 390.008 16.072 C 387.883 15.921,387.290 15.510,387.124 14.071 C 387.028 13.246,386.754 12.972,385.929 12.876 C 384.490 12.710,384.079 12.117,383.928 9.992 L 383.800 8.200 381.200 7.947 C 377.941 7.629,21.877 7.649,18.600 7.967 M90.216 34.825 C 90.543 35.355,89.360 36.697,87.901 37.451 C 86.298 38.280,86.297 40.215,87.900 39.827 C 88.505 39.681,90.620 39.408,92.600 39.221 C 96.339 38.869,97.600 38.554,97.600 37.973 C 97.600 35.624,103.229 33.535,105.604 35.002 C 106.124 35.324,103.450 37.522,102.140 37.851 C 99.624 38.482,107.019 41.030,109.815 40.495 C 110.332 40.396,111.167 39.714,111.670 38.980 C 112.928 37.144,114.070 36.675,115.484 37.413 C 116.098 37.733,117.005 37.996,117.500 37.998 C 117.995 37.999,118.400 38.236,118.400 38.525 C 118.400 39.193,116.325 41.200,115.635 41.200 C 115.325 41.200,115.212 41.455,115.357 41.833 C 115.491 42.181,115.600 42.609,115.600 42.785 C 115.600 43.096,119.002 44.870,120.587 45.385 C 121.179 45.578,121.744 45.228,122.869 43.973 C 124.227 42.457,124.491 42.328,125.743 42.563 C 128.659 43.110,128.543 45.886,125.562 46.879 C 124.813 47.129,125.539 48.746,126.730 49.483 C 127.319 49.846,127.980 50.339,128.200 50.578 C 129.710 52.214,131.600 52.485,131.600 51.066 C 131.600 50.298,133.606 48.827,134.294 49.091 C 135.154 49.421,137.200 51.492,137.200 52.033 C 137.200 52.609,135.189 54.400,134.542 54.400 C 133.239 54.400,134.045 56.319,136.462 58.975 C 138.113 60.789,139.200 61.297,139.200 60.255 C 139.200 59.066,141.194 57.614,142.198 58.072 C 144.120 58.947,144.102 61.320,142.161 62.929 C 141.413 63.550,140.800 64.326,140.800 64.654 C 140.800 65.424,142.831 69.758,143.275 69.936 C 143.462 70.010,143.876 70.333,144.195 70.652 C 144.702 71.160,144.853 71.047,145.392 69.757 C 146.244 67.718,148.000 66.414,148.000 67.821 C 148.000 68.162,148.405 69.157,148.900 70.031 L 149.800 71.621 147.700 73.605 C 146.545 74.696,145.603 75.906,145.607 76.294 C 145.628 78.439,147.628 84.259,148.108 83.573 C 148.175 83.478,148.742 82.635,149.369 81.700 C 150.677 79.750,150.922 79.667,151.777 80.889 C 152.931 82.536,152.561 83.742,150.055 86.507 L 147.710 89.095 147.423 93.525 C 147.118 98.223,147.534 100.450,148.334 98.400 C 148.548 97.850,149.506 96.617,150.462 95.659 L 152.200 93.919 152.318 96.781 C 152.460 100.236,150.434 103.574,147.043 105.472 C 146.309 105.883,146.014 106.386,142.816 112.693 C 137.747 122.686,128.595 132.503,120.800 136.306 C 120.250 136.575,119.530 136.958,119.200 137.158 C 118.870 137.359,117.378 138.125,115.884 138.861 C 111.375 141.084,110.733 141.499,110.001 142.673 C 109.097 144.123,106.985 146.050,105.183 147.072 C 103.743 147.888,98.800 148.371,98.800 147.695 C 98.800 147.057,102.218 144.117,103.588 143.577 C 105.728 142.734,103.974 142.438,98.400 142.702 L 93.800 142.920 91.285 145.260 C 88.619 147.741,87.887 147.976,85.944 146.971 C 84.478 146.213,85.017 145.319,87.794 143.901 C 89.658 142.950,89.569 142.883,84.723 141.600 C 81.323 140.700,79.935 140.976,78.713 142.795 C 77.546 144.531,75.827 145.249,75.100 144.302 C 74.825 143.944,74.001 143.501,73.270 143.318 L 71.939 142.985 72.763 141.938 C 73.217 141.361,74.050 140.774,74.616 140.632 C 76.280 140.214,75.035 137.600,73.173 137.600 C 72.802 137.600,72.283 137.342,72.021 137.026 C 70.914 135.692,69.224 135.828,67.859 137.362 C 66.210 139.215,63.940 139.277,62.829 137.498 C 62.287 136.630,63.157 135.491,65.348 134.200 C 65.965 133.836,65.937 133.709,65.044 132.800 C 61.234 128.924,59.241 128.028,59.206 130.174 C 59.174 132.139,56.932 132.685,55.319 131.122 C 53.599 129.454,54.168 126.800,56.246 126.800 C 57.606 126.800,57.192 125.385,55.100 122.886 C 54.495 122.163,53.999 121.443,53.997 121.286 C 53.989 120.546,51.956 120.048,51.718 120.727 C 51.588 121.097,51.044 121.992,50.509 122.715 L 49.536 124.030 48.368 122.560 C 46.817 120.608,46.891 119.926,48.837 118.261 C 50.685 116.679,50.686 116.552,48.879 112.701 C 47.619 110.015,47.396 109.948,45.800 111.769 C 43.719 114.143,43.064 114.010,42.490 111.098 L 41.998 108.600 43.525 107.200 C 45.556 105.336,45.703 104.800,45.155 101.221 C 44.602 97.613,43.365 96.351,42.344 98.356 C 41.725 99.569,40.335 101.183,39.900 101.193 C 39.735 101.197,39.600 99.969,39.600 98.464 L 39.600 95.729 41.563 93.948 C 43.278 92.392,43.557 91.917,43.768 90.184 C 43.901 89.093,44.188 87.099,44.405 85.754 C 44.622 84.409,44.797 82.699,44.793 81.954 L 44.786 80.600 42.252 83.342 C 39.395 86.433,39.233 86.360,39.572 82.142 C 39.816 79.104,42.074 75.673,44.920 74.014 C 46.004 73.383,48.707 69.586,50.343 66.400 C 54.610 58.089,63.138 49.845,73.262 44.246 C 74.726 43.436,76.143 42.510,76.411 42.187 C 76.679 41.864,77.141 41.600,77.439 41.600 C 77.736 41.600,78.237 41.103,78.551 40.495 C 80.605 36.522,88.802 32.538,90.216 34.825 M57.202 52.198 C 49.764 59.641,47.754 61.452,47.546 60.898 C 47.393 60.495,47.518 60.013,47.841 59.756 C 48.435 59.284,50.400 56.513,50.400 56.147 C 50.400 56.027,51.165 55.170,52.100 54.242 C 53.035 53.315,54.271 52.026,54.848 51.378 C 56.763 49.224,60.299 46.123,62.362 44.786 C 63.483 44.059,64.400 43.316,64.400 43.133 C 64.400 42.950,64.894 42.800,65.497 42.800 C 66.457 42.800,65.425 43.969,57.202 52.198 M72.634 62.500 C 72.043 63.875,71.388 65.313,71.180 65.695 C 70.971 66.077,70.800 66.586,70.800 66.828 C 70.800 67.198,69.300 70.917,67.989 73.800 C 67.307 75.299,64.728 82.197,64.522 83.073 C 64.065 85.019,66.871 88.792,71.199 92.048 C 72.869 93.305,73.184 91.854,67.991 106.800 C 63.345 120.172,63.374 119.765,66.977 121.031 C 70.434 122.244,69.830 123.086,73.763 111.565 C 75.596 106.194,77.300 101.293,77.548 100.674 C 77.797 100.055,78.004 99.335,78.009 99.074 C 78.014 98.813,78.363 97.840,78.785 96.910 L 79.552 95.220 82.690 95.261 C 87.415 95.322,90.591 94.285,91.631 92.342 C 92.257 91.171,93.600 86.794,93.600 85.922 C 93.600 83.187,95.889 83.438,96.825 86.275 C 97.965 89.729,104.151 94.360,108.487 95.006 C 110.882 95.363,110.557 94.849,114.176 104.000 C 117.158 111.542,118.686 115.289,119.804 117.800 C 120.098 118.460,120.462 119.497,120.613 120.103 C 120.998 121.648,122.176 121.789,125.000 120.630 C 128.364 119.249,128.726 118.577,127.427 116.136 C 126.862 115.075,126.400 113.901,126.400 113.527 C 126.400 113.153,126.232 112.743,126.026 112.616 C 125.821 112.489,125.368 111.408,125.021 110.213 C 124.674 109.018,124.212 107.931,123.995 107.797 C 123.778 107.663,123.600 107.241,123.600 106.861 C 123.600 106.480,123.240 105.463,122.800 104.600 C 122.360 103.737,121.999 102.844,121.998 102.615 C 121.996 102.387,121.746 101.722,121.441 101.139 C 121.137 100.555,120.664 99.385,120.392 98.539 C 120.119 97.692,119.753 96.819,119.579 96.597 C 118.111 94.727,117.974 91.092,119.351 90.563 C 122.144 89.492,123.236 78.589,121.031 73.800 C 116.664 64.314,106.722 60.683,99.690 66.006 C 98.574 66.850,97.153 67.599,96.531 67.670 C 95.287 67.813,95.883 66.526,89.555 82.749 C 88.150 86.351,86.604 89.726,86.119 90.249 C 85.089 91.361,82.426 91.568,81.468 90.611 C 80.821 89.964,80.821 89.965,82.622 83.800 C 83.200 81.820,83.916 79.300,84.212 78.200 C 84.508 77.100,85.324 74.310,86.025 72.000 C 88.139 65.041,88.150 64.859,86.530 64.086 C 84.432 63.085,84.002 63.473,82.411 67.800 C 81.926 69.120,81.121 71.190,80.622 72.400 C 80.123 73.610,78.682 77.300,77.420 80.600 C 74.559 88.078,74.721 87.776,73.497 87.923 C 72.357 88.060,70.537 86.429,70.150 84.925 C 69.950 84.143,71.134 79.355,72.606 75.000 C 72.904 74.120,73.631 71.780,74.222 69.800 C 75.405 65.840,76.195 63.357,76.599 62.331 C 76.919 61.515,75.526 60.000,74.455 60.000 C 73.922 60.000,73.403 60.712,72.634 62.500 M145.893 118.582 C 145.576 118.814,145.182 119.425,145.019 119.941 C 144.855 120.457,144.462 121.176,144.146 121.539 C 142.506 123.422,141.600 124.782,141.600 125.358 C 141.600 125.711,141.330 126.000,141.000 126.000 C 140.670 126.000,140.400 126.194,140.400 126.431 C 140.400 126.669,139.680 127.554,138.800 128.400 C 137.920 129.246,137.200 130.119,137.200 130.342 C 137.200 130.564,136.840 130.860,136.400 131.000 C 135.960 131.140,135.600 131.512,135.600 131.827 C 135.600 132.142,135.375 132.402,135.100 132.404 C 134.825 132.406,133.970 133.124,133.200 134.000 C 132.430 134.876,131.575 135.594,131.300 135.596 C 131.025 135.598,130.800 135.775,130.800 135.990 C 130.800 136.204,130.232 136.673,129.538 137.032 C 128.247 137.699,127.720 138.077,126.382 139.290 C 125.963 139.669,125.151 140.097,124.578 140.241 C 124.005 140.385,123.441 140.750,123.325 141.051 C 123.209 141.353,122.595 141.600,121.960 141.600 C 120.929 141.600,122.165 140.236,133.503 128.865 C 144.739 117.596,146.215 116.247,146.334 117.145 C 146.409 117.706,146.211 118.349,145.893 118.582 " stroke="none" fill="#ffffff" fill-rule="evenodd"></path><path id="path4" d="M86.000 34.763 C 83.638 35.026,79.886 37.914,78.551 40.495 C 78.237 41.103,77.736 41.600,77.439 41.600 C 77.141 41.600,76.679 41.864,76.411 42.187 C 76.143 42.510,74.726 43.436,73.262 44.246 C 63.138 49.845,54.610 58.089,50.343 66.400 C 48.707 69.586,46.004 73.383,44.920 74.014 C 42.074 75.673,39.816 79.104,39.572 82.142 C 39.233 86.360,39.395 86.433,42.252 83.342 L 44.786 80.600 44.793 81.954 C 44.797 82.699,44.622 84.409,44.405 85.754 C 44.188 87.099,43.901 89.093,43.768 90.184 C 43.557 91.917,43.278 92.392,41.563 93.948 L 39.600 95.729 39.600 98.464 C 39.600 99.969,39.735 101.197,39.900 101.193 C 40.335 101.183,41.725 99.569,42.344 98.356 C 43.365 96.351,44.602 97.613,45.155 101.221 C 45.703 104.800,45.556 105.336,43.525 107.200 L 41.998 108.600 42.490 111.098 C 43.064 114.010,43.719 114.143,45.800 111.769 C 47.396 109.948,47.619 110.015,48.879 112.701 C 50.686 116.552,50.685 116.679,48.837 118.261 C 46.891 119.926,46.817 120.608,48.368 122.560 L 49.536 124.030 50.509 122.715 C 51.044 121.992,51.588 121.097,51.718 120.727 C 51.956 120.048,53.989 120.546,53.997 121.286 C 53.999 121.443,54.495 122.163,55.100 122.886 C 57.192 125.385,57.606 126.800,56.246 126.800 C 54.168 126.800,53.599 129.454,55.319 131.122 C 56.932 132.685,59.174 132.139,59.206 130.174 C 59.241 128.028,61.234 128.924,65.044 132.800 C 65.937 133.709,65.965 133.836,65.348 134.200 C 63.157 135.491,62.287 136.630,62.829 137.498 C 63.940 139.277,66.210 139.215,67.859 137.362 C 69.224 135.828,70.914 135.692,72.021 137.026 C 72.283 137.342,72.802 137.600,73.173 137.600 C 75.035 137.600,76.280 140.214,74.616 140.632 C 74.050 140.774,73.217 141.361,72.763 141.938 L 71.939 142.985 73.270 143.318 C 74.001 143.501,74.825 143.944,75.100 144.302 C 75.827 145.249,77.546 144.531,78.713 142.795 C 79.935 140.976,81.323 140.700,84.723 141.600 C 89.569 142.883,89.658 142.950,87.794 143.901 C 85.017 145.319,84.478 146.213,85.944 146.971 C 87.887 147.976,88.619 147.741,91.285 145.260 L 93.800 142.920 98.400 142.702 C 103.974 142.438,105.728 142.734,103.588 143.577 C 102.218 144.117,98.800 147.057,98.800 147.695 C 98.800 148.371,103.743 147.888,105.183 147.072 C 106.985 146.050,109.097 144.123,110.001 142.673 C 110.733 141.499,111.375 141.084,115.884 138.861 C 117.378 138.125,118.870 137.359,119.200 137.158 C 119.530 136.958,120.250 136.575,120.800 136.306 C 125.438 134.043,132.343 127.961,136.821 122.193 C 139.973 118.132,140.399 117.457,142.816 112.693 C 146.014 106.386,146.309 105.883,147.043 105.472 C 150.434 103.574,152.460 100.236,152.318 96.781 L 152.200 93.919 150.462 95.659 C 149.506 96.617,148.548 97.850,148.334 98.400 C 147.534 100.450,147.118 98.223,147.423 93.525 L 147.710 89.095 150.055 86.507 C 152.561 83.742,152.931 82.536,151.777 80.889 C 150.922 79.667,150.677 79.750,149.369 81.700 C 148.742 82.635,148.175 83.478,148.108 83.573 C 147.628 84.259,145.628 78.439,145.607 76.294 C 145.603 75.906,146.545 74.696,147.700 73.605 L 149.800 71.621 148.900 70.031 C 148.405 69.157,148.000 68.162,148.000 67.821 C 148.000 66.414,146.244 67.718,145.392 69.757 C 144.853 71.047,144.702 71.160,144.195 70.652 C 143.876 70.333,143.462 70.010,143.275 69.936 C 142.831 69.758,140.800 65.424,140.800 64.654 C 140.800 64.326,141.413 63.550,142.161 62.929 C 144.102 61.320,144.120 58.947,142.198 58.072 C 141.194 57.614,139.200 59.066,139.200 60.255 C 139.200 61.297,138.113 60.789,136.462 58.975 C 134.045 56.319,133.239 54.400,134.542 54.400 C 135.189 54.400,137.200 52.609,137.200 52.033 C 137.200 51.492,135.154 49.421,134.294 49.091 C 133.606 48.827,131.600 50.298,131.600 51.066 C 131.600 52.485,129.710 52.214,128.200 50.578 C 127.980 50.339,127.319 49.846,126.730 49.483 C 125.539 48.746,124.813 47.129,125.562 46.879 C 128.543 45.886,128.659 43.110,125.743 42.563 C 124.491 42.328,124.227 42.457,122.869 43.973 C 121.744 45.228,121.179 45.578,120.587 45.385 C 119.002 44.870,115.600 43.096,115.600 42.785 C 115.600 42.609,115.491 42.181,115.357 41.833 C 115.212 41.455,115.325 41.200,115.635 41.200 C 116.325 41.200,118.400 39.193,118.400 38.525 C 118.400 38.236,117.995 37.999,117.500 37.998 C 117.005 37.996,116.098 37.733,115.484 37.413 C 114.070 36.675,112.928 37.144,111.670 38.980 C 111.167 39.714,110.332 40.396,109.815 40.495 C 107.019 41.030,99.624 38.482,102.140 37.851 C 103.450 37.522,106.124 35.324,105.604 35.002 C 103.229 33.535,97.600 35.624,97.600 37.973 C 97.600 38.554,96.339 38.869,92.600 39.221 C 90.620 39.408,88.505 39.681,87.900 39.827 C 86.297 40.215,86.298 38.280,87.901 37.451 C 89.360 36.697,90.543 35.355,90.216 34.825 C 89.938 34.376,89.523 34.370,86.000 34.763 M64.400 43.133 C 64.400 43.316,63.483 44.059,62.362 44.786 C 60.299 46.123,56.763 49.224,54.848 51.378 C 54.271 52.026,53.035 53.315,52.100 54.242 C 51.165 55.170,50.400 56.027,50.400 56.147 C 50.400 56.513,48.435 59.284,47.841 59.756 C 47.518 60.013,47.393 60.495,47.546 60.898 C 47.754 61.452,49.764 59.641,57.202 52.198 C 65.425 43.969,66.457 42.800,65.497 42.800 C 64.894 42.800,64.400 42.950,64.400 43.133 M76.031 60.831 C 76.547 61.347,76.762 61.915,76.599 62.331 C 76.195 63.357,75.405 65.840,74.222 69.800 C 73.631 71.780,72.904 74.120,72.606 75.000 C 71.134 79.355,69.950 84.143,70.150 84.925 C 70.537 86.429,72.357 88.060,73.497 87.923 C 74.721 87.776,74.559 88.078,77.420 80.600 C 78.682 77.300,80.123 73.610,80.622 72.400 C 81.121 71.190,81.926 69.120,82.411 67.800 C 84.002 63.473,84.432 63.085,86.530 64.086 C 88.150 64.859,88.139 65.041,86.025 72.000 C 85.324 74.310,84.508 77.100,84.212 78.200 C 83.916 79.300,83.200 81.820,82.622 83.800 C 80.821 89.965,80.821 89.964,81.468 90.611 C 82.426 91.568,85.089 91.361,86.119 90.249 C 86.604 89.726,88.150 86.351,89.555 82.749 C 95.883 66.526,95.287 67.813,96.531 67.670 C 97.153 67.599,98.574 66.850,99.690 66.006 C 106.722 60.683,116.664 64.314,121.031 73.800 C 123.236 78.589,122.144 89.492,119.351 90.563 C 117.974 91.092,118.111 94.727,119.579 96.597 C 119.753 96.819,120.119 97.692,120.392 98.539 C 120.664 99.385,121.137 100.555,121.441 101.139 C 121.746 101.722,121.996 102.387,121.998 102.615 C 121.999 102.844,122.360 103.737,122.800 104.600 C 123.240 105.463,123.600 106.480,123.600 106.861 C 123.600 107.241,123.778 107.663,123.995 107.797 C 124.212 107.931,124.674 109.018,125.021 110.213 C 125.368 111.408,125.821 112.489,126.026 112.616 C 126.232 112.743,126.400 113.153,126.400 113.527 C 126.400 113.901,126.862 115.075,127.427 116.136 C 128.726 118.577,128.364 119.249,125.000 120.630 C 122.176 121.789,120.998 121.648,120.613 120.103 C 120.462 119.497,120.098 118.460,119.804 117.800 C 118.686 115.289,117.158 111.542,114.176 104.000 C 110.557 94.849,110.882 95.363,108.487 95.006 C 104.151 94.360,97.965 89.729,96.825 86.275 C 95.889 83.438,93.600 83.187,93.600 85.922 C 93.600 86.794,92.257 91.171,91.631 92.342 C 90.591 94.285,87.415 95.322,82.690 95.261 L 79.552 95.220 78.785 96.910 C 78.363 97.840,78.014 98.813,78.009 99.074 C 78.004 99.335,77.797 100.055,77.548 100.674 C 77.300 101.293,75.596 106.194,73.763 111.565 C 69.830 123.086,70.434 122.244,66.977 121.031 C 63.374 119.765,63.345 120.172,67.991 106.800 C 73.184 91.854,72.869 93.305,71.199 92.048 C 66.871 88.792,64.065 85.019,64.522 83.073 C 64.728 82.197,67.307 75.299,67.989 73.800 C 69.300 70.917,70.800 67.198,70.800 66.828 C 70.800 66.586,70.971 66.077,71.180 65.695 C 71.388 65.313,72.043 63.875,72.634 62.500 C 73.815 59.753,74.578 59.378,76.031 60.831 M133.503 128.865 C 122.165 140.236,120.929 141.600,121.960 141.600 C 122.595 141.600,123.209 141.353,123.325 141.051 C 123.441 140.750,124.005 140.385,124.578 140.241 C 125.151 140.097,125.963 139.669,126.382 139.290 C 127.720 138.077,128.247 137.699,129.538 137.032 C 130.232 136.673,130.800 136.204,130.800 135.990 C 130.800 135.775,131.025 135.598,131.300 135.596 C 131.575 135.594,132.430 134.876,133.200 134.000 C 133.970 133.124,134.825 132.406,135.100 132.404 C 135.375 132.402,135.600 132.142,135.600 131.827 C 135.600 131.512,135.960 131.140,136.400 131.000 C 136.840 130.860,137.200 130.564,137.200 130.342 C 137.200 130.119,137.920 129.246,138.800 128.400 C 139.680 127.554,140.400 126.669,140.400 126.431 C 140.400 126.194,140.670 126.000,141.000 126.000 C 141.330 126.000,141.600 125.711,141.600 125.358 C 141.600 124.782,142.506 123.422,144.146 121.539 C 144.462 121.176,144.855 120.457,145.019 119.941 C 145.182 119.425,145.576 118.814,145.893 118.582 C 146.211 118.349,146.409 117.706,146.334 117.145 C 146.215 116.247,144.739 117.596,133.503 128.865 " stroke="none" fill="#f43e58" fill-rule="evenodd"></path></g></svg>